<?xml version="1.0" encoding="UTF-8"?>
<svg width="32px" height="32px" viewBox="0 0 32 32" version="1.1" xmlns="http://www.w3.org/2000/svg" xmlns:xlink="http://www.w3.org/1999/xlink">
    <!-- Generator: Sketch 63.1 (92452) - https://sketch.com -->
    <title>bulb-63</title>
    <desc>Created with Sketch.</desc>
    <g id="Email-Templates" stroke="none" stroke-width="1" fill="none" fill-rule="evenodd">
        <g id="CST-Dashboard-Email" transform="translate(-120.000000, -381.000000)" fill="#1F40E6" fill-rule="nonzero">
            <g id="bulb-63" transform="translate(120.000000, 381.000000)">
                <rect id="Rectangle" x="0" y="15" width="4" height="2"></rect>
                <rect id="Rectangle" transform="translate(6.101134, 6.100600) rotate(-45.000000) translate(-6.101134, -6.100600) " x="5.10114379" y="4.10061918" width="1.99998082" height="3.99996164"></rect>
                <rect id="Rectangle" x="15" y="0" width="2" height="4"></rect>
                <rect id="Rectangle" transform="translate(25.899907, 6.100627) rotate(-45.000000) translate(-25.899907, -6.100627) " x="23.8999263" y="5.10063669" width="3.99996164" height="1.99998082"></rect>
                <rect id="Rectangle" x="28" y="15" width="4" height="2"></rect>
                <path d="M11,30 L11,31 C11,31.552 11.448,32 12,32 L20,32 C20.552,32 21,31.552 21,31 L21,30 L11,30 Z" id="Path"></path>
                <path d="M16,6 C10.486,6 6,10.486 6,16 C6,19.604 7.9,22.864 11,24.651 L11,28 L21,28 L21,24.651 C24.1,22.864 26,19.604 26,16 C26,10.486 21.514,6 16,6 Z" id="Path"></path>
            </g>
        </g>
    </g>
</svg>